<svg xmlns="http://www.w3.org/2000/svg" xmlns:xlink="http://www.w3.org/1999/xlink" contentStyleType="text/css" data-diagram-type="CLASS" height="724px" preserveAspectRatio="none" style="width:2018px;height:724px;background:#FFFFFF;" version="1.1" viewBox="0 0 2018 724" width="2018px" zoomAndPan="magnify"><defs/><g><!--class RessourceJoueur--><g class="entity" data-entity="RessourceJoueur" data-source-line="5" data-uid="ent0002" id="entity_RessourceJoueur"><rect fill="#F1F1F1" height="504.3125" rx="2.5" ry="2.5" style="stroke:#181818;stroke-width:0.5;" width="2004.7578" x="7" y="7"/><ellipse cx="946.5073" cy="23" fill="#ADD1B2" rx="11" ry="11" style="stroke:#181818;stroke-width:1;"/><path d="M949.4761,28.6406 Q948.8979,28.9375 948.2573,29.0781 Q947.6167,29.2344 946.9136,29.2344 Q944.4136,29.2344 943.0854,27.5938 Q941.7729,25.9375 941.7729,22.8125 Q941.7729,19.6875 943.0854,18.0313 Q944.4136,16.375 946.9136,16.375 Q947.6167,16.375 948.2573,16.5313 Q948.9136,16.6875 949.4761,16.9844 L949.4761,19.7031 Q948.8511,19.125 948.2573,18.8594 Q947.6636,18.5781 947.0386,18.5781 Q945.6948,18.5781 945.0073,19.6563 Q944.3198,20.7188 944.3198,22.8125 Q944.3198,24.9063 945.0073,25.9844 Q945.6948,27.0469 947.0386,27.0469 Q947.6636,27.0469 948.2573,26.7813 Q948.8511,26.5 949.4761,25.9219 L949.4761,28.6406 Z " fill="#000000"/><text fill="#000000" font-family="sans-serif" font-size="14" lengthAdjust="spacing" textLength="117.2432" x="967.0073" y="27.8467">RessourceJoueur</text><line style="stroke:#181818;stroke-width:0.5;" x1="8" x2="2010.7578" y1="39" y2="39"/><rect fill="none" height="6" style="stroke:#C82930;stroke-width:1;" width="6" x="15" y="49.6484"/><text fill="#000000" font-family="sans-serif" font-size="14" lengthAdjust="spacing" textLength="103.5576" x="27" y="55.9951">identifiant : str</text><rect fill="none" height="6" style="stroke:#C82930;stroke-width:1;" width="6" x="15" y="65.9453"/><text fill="#000000" font-family="sans-serif" font-size="14" lengthAdjust="spacing" textLength="91.2666" x="27" y="72.292">argent : float</text><rect fill="none" height="6" style="stroke:#C82930;stroke-width:1;" width="6" x="15" y="82.2422"/><text fill="#000000" font-family="sans-serif" font-size="14" lengthAdjust="spacing" textLength="127.0801" x="27" y="88.5889">medicaments : int</text><rect fill="none" height="6" style="stroke:#C82930;stroke-width:1;" width="6" x="15" y="98.5391"/><text fill="#000000" font-family="sans-serif" font-size="14" lengthAdjust="spacing" textLength="71.1348" x="27" y="104.8857">eau : float</text><rect fill="none" height="6" style="stroke:#C82930;stroke-width:1;" width="6" x="15" y="114.8359"/><text fill="#000000" font-family="sans-serif" font-size="14" lengthAdjust="spacing" textLength="155.9551" x="27" y="121.1826">nourriture_betails : int</text><rect fill="none" height="6" style="stroke:#C82930;stroke-width:1;" width="6" x="15" y="131.1328"/><text fill="#000000" font-family="sans-serif" font-size="14" lengthAdjust="spacing" textLength="214.2314" x="27" y="137.4795">catalogue_prix : CataloguePrix</text><rect fill="none" height="6" style="stroke:#C82930;stroke-width:1;" width="6" x="15" y="147.4297"/><text fill="#000000" font-family="sans-serif" font-size="14" lengthAdjust="spacing" textLength="149.9805" x="27" y="153.7764">graines : Dict[str, int]</text><rect fill="none" height="6" style="stroke:#C82930;stroke-width:1;" width="6" x="15" y="163.7266"/><text fill="#000000" font-family="sans-serif" font-size="14" lengthAdjust="spacing" textLength="158.8057" x="27" y="170.0732">animaux : Dict[str, int]</text><rect fill="none" height="6" style="stroke:#C82930;stroke-width:1;" width="6" x="15" y="180.0234"/><text fill="#000000" font-family="sans-serif" font-size="14" lengthAdjust="spacing" textLength="168.8408" x="27" y="186.3701">batiments : Dict[str, int]</text><rect fill="none" height="6" style="stroke:#C82930;stroke-width:1;" width="6" x="15" y="196.3203"/><text fill="#000000" font-family="sans-serif" font-size="14" lengthAdjust="spacing" textLength="251.3232" x="27" y="202.667">production_batiments : Dict[str, int]</text><rect fill="none" height="6" style="stroke:#C82930;stroke-width:1;" width="6" x="15" y="212.6172"/><text fill="#000000" font-family="sans-serif" font-size="14" lengthAdjust="spacing" textLength="177.8916" x="27" y="218.9639">techniciens : Dict[str, int]</text><line style="stroke:#181818;stroke-width:0.5;" x1="8" x2="2010.7578" y1="226.2656" y2="226.2656"/><ellipse cx="18" cy="239.9141" fill="#84BE84" rx="3" ry="3" style="stroke:#038048;stroke-width:1;"/><text fill="#000000" font-family="sans-serif" font-size="14" lengthAdjust="spacing" textLength="1978.7578" x="27" y="243.2607">__init__(identifiant: str, argent: float=1500, medicaments: int=0, graines: Dict[str, int]=None, animaux: Dict[str, int]=None, batiments: Dict[str, int]=None, production_batiments: Dict[str, int]=None, techniciens: Dict[str, int]=None, eau: float=100000.0, nourriture_betails: int=200)</text><rect fill="#F24D5C" height="6" style="stroke:#C82930;stroke-width:1;" width="6" x="15" y="253.2109"/><text fill="#000000" font-family="sans-serif" font-size="14" lengthAdjust="spacing" textLength="731.835" x="27" y="259.5576">_acheter(nom: str, prix: float, type_de_ressources: dict=None, quantite: int=1, effet=None, repo=None)</text><rect fill="#F24D5C" height="6" style="stroke:#C82930;stroke-width:1;" width="6" x="15" y="269.5078"/><text fill="#000000" font-family="sans-serif" font-size="14" lengthAdjust="spacing" textLength="734.46" x="27" y="275.8545">_vendre(case, mode: ModeSelection, repo_cultures, repo_animaux, repo_cases, repo_ressources_joueur)</text><ellipse cx="18" cy="288.8047" fill="#84BE84" rx="3" ry="3" style="stroke:#038048;stroke-width:1;"/><text fill="#000000" font-family="sans-serif" font-size="14" lengthAdjust="spacing" textLength="320.0928" x="27" y="292.1514">acheter_graine(nom_culture: str, repo=None)</text><ellipse cx="18" cy="305.1016" fill="#84BE84" rx="3" ry="3" style="stroke:#038048;stroke-width:1;"/><text fill="#000000" font-family="sans-serif" font-size="14" lengthAdjust="spacing" textLength="321.2002" x="27" y="308.4482">acheter_animal(nom_animal: str, repo=None)</text><ellipse cx="18" cy="321.3984" fill="#84BE84" rx="3" ry="3" style="stroke:#038048;stroke-width:1;"/><text fill="#000000" font-family="sans-serif" font-size="14" lengthAdjust="spacing" textLength="353.2197" x="27" y="324.7451">acheter_batiment(nom_batiment: str, repo=None)</text><ellipse cx="18" cy="337.6953" fill="#84BE84" rx="3" ry="3" style="stroke:#038048;stroke-width:1;"/><text fill="#000000" font-family="sans-serif" font-size="14" lengthAdjust="spacing" textLength="620.8057" x="27" y="341.042">acheter_technicien(nom_technicien: str, repo_batiments=None, repo_ressources=None)</text><ellipse cx="18" cy="353.9922" fill="#84BE84" rx="3" ry="3" style="stroke:#038048;stroke-width:1;"/><text fill="#000000" font-family="sans-serif" font-size="14" lengthAdjust="spacing" textLength="177.6865" x="27" y="357.3389">acheter_eau(repo=None)</text><ellipse cx="18" cy="370.2891" fill="#84BE84" rx="3" ry="3" style="stroke:#038048;stroke-width:1;"/><text fill="#000000" font-family="sans-serif" font-size="14" lengthAdjust="spacing" textLength="239.5381" x="27" y="373.6357">acheter_medicament(repo=None)</text><ellipse cx="18" cy="386.5859" fill="#84BE84" rx="3" ry="3" style="stroke:#038048;stroke-width:1;"/><text fill="#000000" font-family="sans-serif" font-size="14" lengthAdjust="spacing" textLength="275.707" x="27" y="389.9326">acheter_nourriture_betails(repo=None)</text><ellipse cx="18" cy="402.8828" fill="#84BE84" rx="3" ry="3" style="stroke:#038048;stroke-width:1;"/><text fill="#000000" font-family="sans-serif" font-size="14" lengthAdjust="spacing" textLength="572.3799" x="27" y="406.2295">recolter(case, repo_cultures, repo_animaux, repo_cases, repo_ressources_joueur)</text><ellipse cx="18" cy="419.1797" fill="#84BE84" rx="3" ry="3" style="stroke:#038048;stroke-width:1;"/><text fill="#000000" font-family="sans-serif" font-size="14" lengthAdjust="spacing" textLength="621.4756" x="27" y="422.5264">vendre_animal(case, repo_cultures, repo_animaux, repo_cases, repo_ressources_joueur)</text><ellipse cx="18" cy="435.4766" fill="#84BE84" rx="3" ry="3" style="stroke:#038048;stroke-width:1;"/><text fill="#000000" font-family="sans-serif" font-size="14" lengthAdjust="spacing" textLength="720.2275" x="27" y="438.8232">vendre_batiment(batiment_id: str, repo_batiments, repo_cases, repo_ressources_joueur, obtenir_case)</text><ellipse cx="18" cy="451.7734" fill="#84BE84" rx="3" ry="3" style="stroke:#038048;stroke-width:1;"/><text fill="#000000" font-family="sans-serif" font-size="14" lengthAdjust="spacing" textLength="460.5029" x="27" y="455.1201">calculer_besoin_eau_et_nourriture_batiments() : tuple[float, float]</text><ellipse cx="18" cy="468.0703" fill="#84BE84" rx="3" ry="3" style="stroke:#038048;stroke-width:1;"/><text fill="#000000" font-family="sans-serif" font-size="14" lengthAdjust="spacing" textLength="399.4785" x="27" y="471.417">calculer_revenu_batiments(panne_actuelle=None) : float</text><ellipse cx="18" cy="484.3672" fill="#84BE84" rx="3" ry="3" style="stroke:#038048;stroke-width:1;"/><text fill="#000000" font-family="sans-serif" font-size="14" lengthAdjust="spacing" textLength="421.3467" x="27" y="487.7139">tomber_en_panne(batiment, type_de_de_panne_metier: str)</text><ellipse cx="18" cy="500.6641" fill="#84BE84" rx="3" ry="3" style="stroke:#038048;stroke-width:1;"/><text fill="#000000" font-family="sans-serif" font-size="14" lengthAdjust="spacing" textLength="241.3906" x="27" y="504.0107">en_dictionnaire() : Dict[str, object]</text></g><!--class CataloguePrix--><g class="entity" data-entity="CataloguePrix" data-source-line="41" data-uid="ent0003" id="entity_CataloguePrix"><rect fill="#F1F1F1" height="129.4844" rx="2.5" ry="2.5" style="stroke:#181818;stroke-width:0.5;" width="226.1289" x="896.31" y="588.32"/><ellipse cx="956.3124" cy="604.32" fill="#ADD1B2" rx="11" ry="11" style="stroke:#181818;stroke-width:1;"/><path d="M959.2812,609.9606 Q958.7031,610.2575 958.0624,610.3981 Q957.4218,610.5544 956.7187,610.5544 Q954.2187,610.5544 952.8906,608.9137 Q951.5781,607.2575 951.5781,604.1325 Q951.5781,601.0075 952.8906,599.3512 Q954.2187,597.695 956.7187,597.695 Q957.4218,597.695 958.0624,597.8512 Q958.7187,598.0075 959.2812,598.3044 L959.2812,601.0231 Q958.6562,600.445 958.0624,600.1794 Q957.4687,599.8981 956.8437,599.8981 Q955.4999,599.8981 954.8124,600.9762 Q954.1249,602.0387 954.1249,604.1325 Q954.1249,606.2262 954.8124,607.3044 Q955.4999,608.3669 956.8437,608.3669 Q957.4687,608.3669 958.0624,608.1012 Q958.6562,607.82 959.2812,607.2419 L959.2812,609.9606 Z " fill="#000000"/><text fill="#000000" font-family="sans-serif" font-size="14" lengthAdjust="spacing" textLength="97.624" x="976.8124" y="609.1667">CataloguePrix</text><line style="stroke:#181818;stroke-width:0.5;" x1="897.31" x2="1121.4389" y1="620.32" y2="620.32"/><rect fill="none" height="6" style="stroke:#C82930;stroke-width:1;" width="6" x="904.31" y="630.9684"/><text fill="#000000" font-family="sans-serif" font-size="14" lengthAdjust="spacing" textLength="73.3975" x="916.31" y="637.3151">_prix : dict</text><rect fill="none" height="6" style="stroke:#C82930;stroke-width:1;" width="6" x="904.31" y="647.2653"/><text fill="#000000" font-family="sans-serif" font-size="14" lengthAdjust="spacing" textLength="105.2734" x="916.31" y="653.612">_quantite : dict</text><line style="stroke:#181818;stroke-width:0.5;" x1="897.31" x2="1121.4389" y1="660.9137" y2="660.9137"/><ellipse cx="907.31" cy="674.5622" fill="#84BE84" rx="3" ry="3" style="stroke:#038048;stroke-width:1;"/><text fill="#000000" font-family="sans-serif" font-size="14" lengthAdjust="spacing" textLength="61.0654" x="916.31" y="677.9089">__init__()</text><ellipse cx="907.31" cy="690.8591" fill="#84BE84" rx="3" ry="3" style="stroke:#038048;stroke-width:1;"/><text fill="#000000" font-family="sans-serif" font-size="14" lengthAdjust="spacing" textLength="137.7646" x="916.31" y="694.2057">get(nom: str) : float</text><ellipse cx="907.31" cy="707.1559" fill="#84BE84" rx="3" ry="3" style="stroke:#038048;stroke-width:1;"/><text fill="#000000" font-family="sans-serif" font-size="14" lengthAdjust="spacing" textLength="200.1289" x="916.31" y="710.5026">set(nom: str, montant: float)</text></g><!--link RessourceJoueur to CataloguePrix--><g class="link" data-entity-1="RessourceJoueur" data-entity-2="CataloguePrix" data-source-line="54" data-uid="lnk4" id="link_RessourceJoueur_CataloguePrix"><path codeLine="54" d="M1009.38,511.68 C1009.38,539.55 1009.38,559.79 1009.38,581.87" fill="none" id="RessourceJoueur-to-CataloguePrix" style="stroke:#181818;stroke-width:1;"/><polygon fill="#181818" points="1009.38,587.87,1013.38,578.87,1009.38,582.87,1005.38,578.87,1009.38,587.87" style="stroke:#181818;stroke-width:1;"/><text fill="#000000" font-family="sans-serif" font-size="13" lengthAdjust="spacing" textLength="38.9429" x="1010.38" y="554.3869">utilise</text></g><!--SRC=[jLLDRzim3BtdL-ZM14s6TC0k1R9BTngmOUYEHI0eCfEoa2LF7qE7OVzzb2pPZXCtEMn6qTWY7ydtI4atRFF6CxjX3qeu1-mHd3F1IlXi0WHBXZTnCnbXOnJxFMFqh1XMe3tkKMZFxfdpDgyBUu2qj5T6-BnOGuLIr6HmP45Tra64aQUcN1PziC1tu0MgOu0KNYXp2C0RYwzaUYWBt-WxEnsiG0qH-0cbVwBQbZ74jbIeiHRXTSgy4nvBfMST6ckg83qQpI_wUf3F6YM2FkEIV6uPvwZHSpuVI9eKNMOniqARkm_hzNAePL9cGskPyJZ3vglHi2o49wmTXmdxEReJhWEs4nxKy8xDEZxlgFhJdhV4tg_NYwmZ5_8PFDYvDdNM9Wv0ZaMPVpN0A-2sJ2k589byJliZaAReeOrxHtNizr2C5XgJNhjaFq5N5kPIE3BNfYBS5_h_7HGa8LeCbq75ebt-p38N8u6BfQ-AlwHTjCYjpwnusxz8hWJD94UrzOYKJ2L4-te9K7gN8ENZ4gXlQ8BrdmDWFnK3FGUKpmQcEPXFPkqdVDhdT6PEVIr8e-BGj8tyHprhXwCqu7-4xbfLNZXMPmM_9lQIcPq7ZJQvbKnIA2etZWKuWphsWuC_KhKacI_evFAXKV2KDrlwsOuZMQ3omm3N2Ar99-a3A0LjPuvE-rlcJRsBqw1vSku8znkQ_jeuDNW4csGe90WMzpXjI2sGzklYw8WrknVQhTlPdzcbcwwx8Oyla-lknoDCTpkMwodMLvRA8LIMnyT_eNK0tnrpOy7Sm1QF9kr5TpyihgBw24f4oTn5VkERVxNwE69xpu97XGx-0W00]--></g></svg>